<mxfile host="app.diagrams.net" modified="2023-07-28T09:52:31.881Z" agent="Mozilla/5.0 (Macintosh; Intel Mac OS X 10_15_7) AppleWebKit/605.1.15 (KHTML, like Gecko) Version/16.3 Safari/605.1.15" version="21.6.5" etag="iiCL0prjdliXhlgjN-y3" type="github">
  <diagram name="Sayfa -1" id="ptONi5OsW41uH1OAJ2Df">
    <mxGraphModel>
      <root>
        <mxCell id="0" />
        <mxCell id="1" parent="0" />
      </root>
    </mxGraphModel>
  </diagram>
</mxfile>
